# xmcd
#
# Track frame offsets: 
#        150
#        17415
#        40007
#        72890
#        97187
#        124845
#        142812
#        161535
#        179005
#        203797
#        216412
#
# Disc length: 3158 seconds
#
# Revision: 2
# Processed by: cddbd v1.5.2PL0 Copyright (c) Steve Scherf et al.
# Submitted via: ExactAudioCopy v1.0b3
#
DISCID=9b0c540b
DTITLE=Various Artist - STAR STREET TRAX Vol.1 Disc 2
DYEAR=1994
DGENRE=Rock
TTITLE0=布袋寅泰 - さらば青春の光
TTITLE1=布袋寅泰 - deja-vu
TTITLE2=布袋寅泰 - DANCING WITH THE MOONLIGHT
TTITLE3=山下久美子 - いっぱいキスしよう
TTITLE4=山下久美子 - TODAY I LOVE YOU MORE THAN YESTERDAY
TTITLE5=松井常松 - TEARS
TTITLE6=花田裕之 - 君に会いたい
TTITLE7=花田裕之 - Riff Rough
TTITLE8=花田裕之 - HEAVENLY!
TTITLE9=GALAPAGOS - DOWN BY LAW
TTITLE10=GALAPAGOS - Merry X’mas
EXTD=
EXTT0=
EXTT1=
EXTT2=
EXTT3=
EXTT4=
EXTT5=
EXTT6=
EXTT7=
EXTT8=
EXTT9=
EXTT10=
PLAYORDER=
